<svg width="24" height="24" viewBox="0 0 24 24" fill="none" xmlns="http://www.w3.org/2000/svg">
<path fill-rule="evenodd" clip-rule="evenodd" d="M17.06 22.4685C19.315 22.55 21.457 21.2355 22.108 18.9495C22.666 16.9895 23.273 14.093 23.4935 10.3045C23.6235 8.08001 21.7985 6.27451 19.591 6.37851C17.8115 6.46251 16.193 6.59851 15.1885 6.69251L15.0835 4.60251C15.0165 3.25151 14.31 1.63851 12.594 1.25101C12.1248 1.14764 11.6503 1.07035 11.1725 1.01951C9.62252 0.846511 8.29852 1.84451 7.81502 3.19851L6.40502 7.14501C6.23714 7.0657 6.06063 7.00613 5.87902 6.96751C5.24241 6.83254 4.59328 6.7655 3.94252 6.76751C3.17552 6.76751 2.52252 6.85651 2.00602 6.96751C0.756021 7.23651 0.103522 8.35901 0.0725215 9.42251C0.0233434 11.1592 -0.000825742 12.8966 2.15216e-05 14.634C2.15216e-05 16.9085 0.0400215 18.737 0.0725215 19.8445C0.103522 20.9085 0.755522 22.031 2.00602 22.3C2.52202 22.411 3.17602 22.5 3.94252 22.5C4.70902 22.5 5.36302 22.411 5.87902 22.3C6.35752 22.2003 6.79254 21.9526 7.12252 21.592C7.23619 21.609 7.37269 21.6285 7.53202 21.6505C8.04602 21.722 8.79052 21.8195 9.71602 21.923C11.566 22.1305 14.1445 22.3635 17.06 22.4685ZM7.81802 19.671C8.31602 19.7405 9.03902 19.8345 9.93902 19.936C11.7515 20.139 14.2785 20.3675 17.132 20.4705C18.5895 20.523 19.818 19.6905 20.1845 18.4025C20.7045 16.5745 21.2855 13.8225 21.497 10.189C21.5565 9.16901 20.725 8.32801 19.685 8.37701C17.1925 8.49451 15.017 8.71601 14.479 8.77351C14.3268 8.78969 14.1729 8.77463 14.0267 8.72926C13.8805 8.68389 13.7451 8.60916 13.6288 8.50965C13.5125 8.41014 13.4177 8.28794 13.3503 8.15053C13.2828 8.01312 13.2441 7.86339 13.2365 7.71051L13.0865 4.70301C13.0415 3.81051 12.6295 3.31001 12.1535 3.20251C11.7564 3.11533 11.3548 3.05023 10.9505 3.00751C10.4405 2.95051 9.91152 3.27401 9.69802 3.87201L7.82702 9.11051L7.79702 9.19551C7.80502 9.27218 7.81035 9.34818 7.81302 9.42351C7.84502 10.531 7.88552 12.3595 7.88552 14.634C7.88552 16.7935 7.84902 18.551 7.81802 19.671ZM4.94302 17.576C4.94302 17.3108 4.83766 17.0564 4.65013 16.8689C4.46259 16.6814 4.20824 16.576 3.94302 16.576C3.6778 16.576 3.42345 16.6814 3.23591 16.8689C3.04838 17.0564 2.94302 17.3108 2.94302 17.576V18.557C2.94302 18.8222 3.04838 19.0766 3.23591 19.2641C3.42345 19.4517 3.6778 19.557 3.94302 19.557C4.20824 19.557 4.46259 19.4517 4.65013 19.2641C4.83766 19.0766 4.94302 18.8222 4.94302 18.557V17.576Z" fill="black"/>
</svg>
