<svg width="24" height="24" viewBox="0 0 24 24" fill="none" xmlns="http://www.w3.org/2000/svg">
<path fill-rule="evenodd" clip-rule="evenodd" d="M7.78401 1.356C7.42832 1.29326 7.06376 1.3012 6.71114 1.37936C6.35852 1.45753 6.02475 1.60439 5.72889 1.81157C5.43304 2.01874 5.18089 2.28217 4.98685 2.5868C4.79281 2.89143 4.66069 3.2313 4.59801 3.587L2.16801 17.374C2.04128 18.0922 2.20502 18.8313 2.62322 19.4288C3.04142 20.0263 3.67982 20.4332 4.39801 20.56L16.216 22.644C16.9341 22.7704 17.6729 22.6066 18.2702 22.1884C18.8674 21.7702 19.2742 21.132 19.401 20.414L21.833 6.626C21.8958 6.27031 21.8878 5.90575 21.8097 5.55313C21.7315 5.20051 21.5846 4.86674 21.3774 4.57088C21.1703 4.27503 20.9068 4.02288 20.6022 3.82884C20.2976 3.6348 19.9577 3.50267 19.602 3.44L7.78401 1.356ZM9.06001 5.643C8.96215 5.62378 8.86143 5.62427 8.76376 5.64445C8.66609 5.66462 8.57343 5.70408 8.49119 5.7605C8.40895 5.81692 8.33879 5.88918 8.28481 5.97304C8.23083 6.05691 8.19413 6.1507 8.17684 6.24892C8.15955 6.34714 8.16202 6.44783 8.18411 6.54508C8.20621 6.64234 8.24747 6.73421 8.3055 6.81532C8.36353 6.89644 8.43715 6.96516 8.52207 7.01748C8.60698 7.06979 8.70147 7.10465 8.80001 7.12L16.678 8.51C16.874 8.54448 17.0757 8.49969 17.2386 8.38548C17.4016 8.27127 17.5125 8.097 17.547 7.901C17.5815 7.70501 17.5367 7.50334 17.4225 7.34037C17.3083 7.1774 17.134 7.06648 16.938 7.032L9.06001 5.643ZM7.49701 10.191C7.53164 9.99515 7.64264 9.82106 7.80561 9.70704C7.96857 9.59303 8.17015 9.54841 8.36601 9.583L16.244 10.972C16.3426 10.9874 16.4371 11.0222 16.522 11.0745C16.6069 11.1268 16.6805 11.1956 16.7385 11.2767C16.7966 11.3578 16.8378 11.4497 16.8599 11.5469C16.882 11.6442 16.8845 11.7449 16.8672 11.8431C16.8499 11.9413 16.8132 12.0351 16.7592 12.119C16.7052 12.2028 16.6351 12.2751 16.5528 12.3315C16.4706 12.3879 16.3779 12.4274 16.2803 12.4476C16.1826 12.4677 16.0819 12.4682 15.984 12.449L8.10501 11.059C7.90936 11.0244 7.73545 10.9135 7.62146 10.7508C7.50747 10.588 7.46271 10.3867 7.49701 10.191ZM7.67101 13.521C7.57315 13.5018 7.47243 13.5023 7.37476 13.5224C7.27709 13.5426 7.18443 13.5821 7.10219 13.6385C7.01995 13.6949 6.94979 13.7672 6.89581 13.851C6.84183 13.9349 6.80513 14.0287 6.78784 14.1269C6.77055 14.2251 6.77302 14.3258 6.79511 14.4231C6.81721 14.5203 6.85847 14.6122 6.9165 14.6933C6.97453 14.7744 7.04815 14.8432 7.13307 14.8955C7.21798 14.9478 7.31247 14.9826 7.41101 14.998L12.335 15.867C12.531 15.9015 12.7327 15.8567 12.8956 15.7425C13.0586 15.6283 13.1695 15.454 13.204 15.258C13.2385 15.062 13.1937 14.8603 13.0795 14.6974C12.9653 14.5344 12.791 14.4235 12.595 14.389L7.67101 13.521Z" fill="black"/>
</svg>
